<svg width="20" height="19" viewBox="0 0 20 19" fill="none" xmlns="http://www.w3.org/2000/svg">
<path fill-rule="evenodd" clip-rule="evenodd" d="M0.393508 18.6723L1.96672 15.8495C2.09583 15.6359 2.23769 15.4589 2.39548 15.333C2.8912 14.9377 4.14084 15.3474 4.74016 15.4526C4.8597 15.4797 8.81265 13.4235 10.727 13.4235L11.7774 12.8258C12.2189 12.5739 13.2374 11.8758 13.6853 11.8854C14.0136 11.8933 14.3229 12.0798 14.6114 12.4592L16.1208 14.7353L19.8235 18.5416C20.1375 18.7472 19.6832 18.8572 19.4872 18.8572H0.470017C0.313812 18.8253 0.317 18.7568 0.393508 18.6723ZM11.347 4.69354C11.2864 4.46879 11.4203 4.23767 11.6451 4.1787C11.8698 4.11813 12.1009 4.25202 12.1599 4.47676L12.2938 4.97726L12.3113 4.96929L12.3161 4.96769C12.4755 4.9135 12.6636 4.94697 12.8262 5.0442C12.9425 5.11274 13.0477 5.21316 13.1226 5.33749C13.1991 5.46181 13.2454 5.61005 13.2438 5.77263C13.2422 6.00694 13.1402 6.26834 12.8788 6.52656C12.8676 6.53772 12.8549 6.54569 12.8405 6.55047L12.7257 6.59669L13.9292 11.0836C13.8527 11.0724 13.7746 11.0645 13.6964 11.0629C13.51 11.0581 13.3012 11.1059 13.0844 11.1824L11.9383 6.9091L11.6435 7.02546L11.5335 7.06531C10.8927 7.29324 10.4273 7.45741 9.61439 7.25658C9.60802 7.25498 9.60324 7.25339 9.59686 7.2502C9.02783 7.03024 8.73295 6.72261 8.44604 6.42295L8.4046 6.37992L8.04118 8.6943C8.36635 8.89833 8.69151 9.04975 8.99754 9.1932C9.9284 9.62675 10.6935 9.98539 10.8577 11.447C10.8879 11.71 10.8736 11.9571 10.8593 12.2249V12.2296C10.8577 12.2679 10.8545 12.3093 10.8513 12.405L10.4974 12.6074C10.0958 12.6329 9.6399 12.7206 9.16172 12.8465C9.16969 12.6536 9.17925 12.4624 9.18881 12.2711L9.19519 12.1388C9.20316 11.9858 9.21113 11.8455 9.20316 11.7132C9.19519 11.5873 9.17287 11.4709 9.12027 11.3578L9.10593 11.3275C9.04855 11.2016 8.99435 11.0836 8.91466 11.0469C8.75526 10.972 8.50342 10.8812 8.21652 10.7871C7.88817 10.6787 7.52156 10.5688 7.19799 10.4779C6.9605 11.2653 6.63853 12.2153 6.29264 13.1206C6.1731 13.4331 6.05196 13.7391 5.92923 14.0324C5.81287 14.0834 5.70289 14.1328 5.5961 14.179C5.06532 14.4149 4.69871 14.5998 4.13446 14.4803C4.07549 14.4675 4.01492 14.4564 3.95435 14.4436C4.18069 13.8539 4.42137 13.1892 4.65568 12.5181C5.00634 11.514 5.34266 10.4891 5.58972 9.6666C5.44308 9.48649 5.30122 9.28406 5.20558 9.06091C5.09879 8.81544 5.04778 8.54926 5.10038 8.26394L5.61841 5.46341L5.59131 5.46181C5.4112 5.45384 5.26137 5.44747 5.09082 5.52238C4.85492 5.62599 4.67002 5.83479 4.46122 6.0691C4.37833 6.16314 4.29067 6.26197 4.19025 6.36238L4.18387 6.36876C4.10896 6.44527 4.03245 6.52496 3.95913 6.59828L3.04421 7.52276C3.00437 7.56261 2.9422 7.56261 2.90235 7.52276L1.90455 6.47555C1.8663 6.4357 1.86789 6.37195 1.90774 6.33369L2.82106 5.41081C2.89917 5.33111 2.96771 5.26098 3.03306 5.19403L3.04262 5.18447C3.45385 4.73498 3.79017 4.37475 4.21894 4.13247C4.65408 3.88701 5.1753 3.76428 5.95473 3.79934H5.95632C6.23526 3.80253 6.56202 3.83282 6.83299 3.85832C6.95891 3.86948 7.07207 3.88063 7.16771 3.88701C8.48111 3.97308 9.09636 4.66485 9.57454 5.202C9.78654 5.4395 9.96825 5.64511 10.1659 5.73916C10.2583 5.78379 10.405 5.72162 10.5708 5.65149C10.6712 5.60845 10.778 5.56382 10.8895 5.53354C10.9629 5.50644 11.0027 5.4905 11.033 5.47935C11.0728 5.46341 11.0999 5.45384 11.1159 5.44747L11.5048 5.29286L11.347 4.69354ZM7.2761 0.286322C7.68733 0.146056 8.11769 0.185904 8.47952 0.362831C8.84134 0.539757 9.13621 0.856949 9.27807 1.26818C9.41834 1.67942 9.38009 2.10978 9.20157 2.4716C9.02464 2.83342 8.70745 3.1283 8.29621 3.26856C7.88498 3.40883 7.45462 3.37058 7.0928 3.19206C6.73097 3.01513 6.4361 2.69794 6.29583 2.2867C6.15556 1.87547 6.19382 1.44511 6.37234 1.08329C6.54767 0.723059 6.86327 0.428182 7.2761 0.286322Z" fill="#817794"/>
</svg>
