<svg width="25" height="20" viewBox="0 0 25 20" fill="none" xmlns="http://www.w3.org/2000/svg">
<path d="M22.3076 0.15332H3.09701C1.77628 0.15332 0.707685 1.23392 0.707685 2.55465L0.695679 16.9626C0.695679 18.2833 1.77628 19.3639 3.09701 19.3639H22.3076C23.6284 19.3639 24.709 18.2833 24.709 16.9626V2.55465C24.709 1.23392 23.6284 0.15332 22.3076 0.15332ZM21.107 16.9626H4.29767C3.63731 16.9626 3.09701 16.4223 3.09701 15.7619V4.95597L11.4296 10.1669C12.21 10.6591 13.1946 10.6591 13.975 10.1669L22.3076 4.95597V15.7619C22.3076 16.4223 21.7673 16.9626 21.107 16.9626ZM12.7023 8.55797L3.09701 2.55465H22.3076L12.7023 8.55797Z" fill="white"/>
</svg>
