<svg width="22" height="22" viewBox="0 0 22 22" fill="none" xmlns="http://www.w3.org/2000/svg">
<g clip-path="url(#clip0_1_1587)">
<path d="M6.8867 0.238525C3.75355 0.238525 1.21277 2.77931 1.21277 5.91246V14.9907C1.21277 18.1239 3.75355 20.6647 6.8867 20.6647H15.965C19.0981 20.6647 21.6389 18.1239 21.6389 14.9907V5.91246C21.6389 2.77931 19.0981 0.238525 15.965 0.238525H6.8867ZM18.2346 2.5081C18.861 2.5081 19.3693 3.01648 19.3693 3.64288C19.3693 4.26929 18.861 4.77767 18.2346 4.77767C17.6082 4.77767 17.0998 4.26929 17.0998 3.64288C17.0998 3.01648 17.6082 2.5081 18.2346 2.5081ZM11.4258 4.77767C14.559 4.77767 17.0998 7.31846 17.0998 10.4516C17.0998 13.5847 14.559 16.1255 11.4258 16.1255C8.2927 16.1255 5.75191 13.5847 5.75191 10.4516C5.75191 7.31846 8.2927 4.77767 11.4258 4.77767ZM11.4258 7.04724C10.523 7.04724 9.65704 7.40591 9.0186 8.04435C8.38016 8.6828 8.02148 9.54871 8.02148 10.4516C8.02148 11.3545 8.38016 12.2204 9.0186 12.8588C9.65704 13.4973 10.523 13.856 11.4258 13.856C12.3287 13.856 13.1946 13.4973 13.8331 12.8588C14.4715 12.2204 14.8302 11.3545 14.8302 10.4516C14.8302 9.54871 14.4715 8.6828 13.8331 8.04435C13.1946 7.40591 12.3287 7.04724 11.4258 7.04724Z" fill="white"/>
</g>
<defs>
<clipPath id="clip0_1_1587">
<rect width="21.0605" height="21.0605" fill="white" transform="translate(0.779175 0.151367)"/>
</clipPath>
</defs>
</svg>
