<svg width="27" height="26" viewBox="0 0 27 26" fill="none" xmlns="http://www.w3.org/2000/svg">
<path fill-rule="evenodd" clip-rule="evenodd" d="M4.77164 0.254395H22.0059C23.1079 0.257686 24.1638 0.696906 24.943 1.47613C25.7223 2.25535 26.1615 3.31126 26.1648 4.41324V21.6475C26.1615 22.7495 25.7223 23.8054 24.943 24.5846C24.1638 25.3639 23.1079 25.8031 22.0059 25.8064H4.77164C3.66966 25.8031 2.61375 25.3639 1.83453 24.5846C1.0553 23.8054 0.616084 22.7495 0.612793 21.6475L0.612793 4.41324C0.616084 3.31126 1.0553 2.25535 1.83453 1.47613C2.61375 0.696906 3.66966 0.257686 4.77164 0.254395ZM17.165 6.49267C17.5953 6.49263 18.0192 6.59625 18.4009 6.79475C18.7827 6.99325 19.1109 7.2808 19.358 7.63306C19.6051 7.98531 19.7636 8.3919 19.8203 8.81841C19.8769 9.24492 19.8299 9.6788 19.6834 10.0833C19.5368 10.4878 19.2949 10.8511 18.9782 11.1424C18.6616 11.4336 18.2794 11.6443 17.864 11.7565C17.4486 11.8688 17.0124 11.8793 16.5921 11.7872C16.1718 11.6951 15.7799 11.5031 15.4495 11.2275L11.8916 12.7143C11.9038 12.8151 11.9107 12.9164 11.9124 13.0179L15.6096 14.721C16.1184 14.3656 16.7356 14.1997 17.354 14.252C17.9724 14.3044 18.5529 14.5717 18.9948 15.0075C19.4366 15.4433 19.7118 16.0201 19.7727 16.6377C19.8335 17.2553 19.6761 17.8748 19.3278 18.3884C18.9794 18.902 18.4622 19.2774 17.8659 19.4494C17.2696 19.6214 16.6319 19.5791 16.0636 19.3299C15.4952 19.0806 15.0321 18.6402 14.7547 18.085C14.4773 17.5299 14.4031 16.8951 14.5449 16.2909L11.2698 14.7771C10.9238 15.1824 10.4647 15.4752 9.95132 15.6181C9.43792 15.7611 8.89356 15.7476 8.38786 15.5794C7.88217 15.4113 7.43814 15.0961 7.11258 14.6742C6.78701 14.2522 6.59472 13.7428 6.56029 13.211C6.52587 12.6792 6.65088 12.1492 6.91933 11.6888C7.18778 11.2285 7.58747 10.8586 8.06726 10.6267C8.54705 10.3947 9.08514 10.3112 9.61267 10.3867C10.1402 10.4623 10.6332 10.6935 11.0286 11.0508L14.52 9.59517C14.4977 9.45767 14.4866 9.31858 14.4867 9.17929C14.4856 8.82687 14.5541 8.4777 14.6882 8.15179C14.8223 7.82588 15.0194 7.52965 15.2682 7.28006C15.517 7.03048 15.8127 6.83245 16.1381 6.69733C16.4636 6.56222 16.8126 6.49267 17.165 6.49267Z" fill="#4EBEF6"/>
</svg>
