<svg width="18" height="18" viewBox="0 0 18 18" fill="none" xmlns="http://www.w3.org/2000/svg">
<path d="M14.2651 0.619995C14.8296 0.619766 15.3853 0.758769 15.8832 1.02469C16.3811 1.29061 16.8057 1.67523 17.1194 2.14447C17.4331 2.61372 17.6262 3.1531 17.6816 3.71482C17.737 4.27654 17.653 4.84325 17.437 5.36474C17.2211 5.88624 16.8798 6.3464 16.4435 6.70447C16.0071 7.06254 15.4892 7.30745 14.9356 7.41751C14.382 7.52756 13.8098 7.49936 13.2697 7.3354C12.7296 7.17144 12.2382 6.87679 11.8392 6.47755C11.8088 6.44707 11.7797 6.4166 11.7506 6.38473L7.43637 8.18578C7.53537 8.59129 7.56024 9.01136 7.5098 9.42573L11.8947 11.4692C12.5012 10.8934 13.2979 10.56 14.1338 10.5323C14.9697 10.5046 15.7867 10.7845 16.43 11.3189C17.0734 11.8534 17.4983 12.6052 17.6244 13.432C17.7504 14.2588 17.5688 15.1031 17.1139 15.805C16.6591 16.5068 15.9626 17.0174 15.1564 17.2401C14.3502 17.4627 13.4904 17.3819 12.7398 17.0129C11.9892 16.644 11.4001 16.0125 11.0839 15.2382C10.7678 14.4639 10.7467 13.6005 11.0246 12.8117L6.95425 10.9081C6.56106 11.4964 5.99565 11.9488 5.33541 12.2033C4.67518 12.4578 3.95242 12.502 3.26611 12.3298C2.57979 12.1576 1.96347 11.7775 1.50155 11.2415C1.03963 10.7055 0.754696 10.0398 0.685761 9.33558C0.616826 8.63136 0.767263 7.92305 1.11647 7.30764C1.46568 6.69223 1.99659 6.19982 2.63649 5.89782C3.27639 5.59582 3.994 5.49902 4.69105 5.62066C5.3881 5.74229 6.03051 6.07643 6.53031 6.5773C6.59127 6.63826 6.65084 6.70199 6.70626 6.76711L10.965 4.991C10.8197 4.48046 10.7949 3.94317 10.8924 3.42139C10.9899 2.89961 11.2071 2.40756 11.5269 1.98393C11.8467 1.5603 12.2605 1.21664 12.7356 0.979971C13.2107 0.743303 13.7343 0.620082 14.2651 0.619995Z" fill="#DFE6EB"/>
</svg>
