<svg width="21" height="21" viewBox="0 0 21 21" fill="none" xmlns="http://www.w3.org/2000/svg">
<g clip-path="url(#clip0_1_1589)">
<path d="M8.45233 6.32279L14.5785 15.0405H12.9499L6.83455 6.32279H8.45233ZM20.3621 4.16292V17.2003C20.3621 19.0006 18.9009 20.4597 17.0982 20.4597H4.04289C2.24016 20.4597 0.779053 19.0006 0.779053 17.2003V4.16292C0.779053 2.36267 2.24016 0.903564 4.04289 0.903564H17.0982C18.9009 0.903564 20.3621 2.36267 20.3621 4.16292ZM16.5956 16.1139L12.0415 9.60605L15.7644 5.24937H14.3381L11.3963 8.68256L8.99521 5.24937H4.80662L9.09421 11.3694L5.02856 16.1139H6.4788L9.74372 12.2939L12.4179 16.1139H16.5956Z" fill="white"/>
</g>
<defs>
<clipPath id="clip0_1_1589">
<rect width="20.3083" height="19.5561" fill="white" transform="translate(0.413086 0.903564)"/>
</clipPath>
</defs>
</svg>
